<svg xmlns="http://www.w3.org/2000/svg" width="73.059" height="74.319" viewBox="0 0 73.059 74.319">
  <g id="Grupo_16" data-name="Grupo 16" transform="translate(-300.298 -2114.629)">
    <path id="Caminho_973" data-name="Caminho 973" d="M0,17.635H73.059V0H0Zm62.982-12.6A3.779,3.779,0,1,1,59.2,8.817,3.779,3.779,0,0,1,62.982,5.038Zm0,0" transform="translate(300.298 2114.629)" fill="#ffda44"/>
    <path id="Caminho_974" data-name="Caminho 974" d="M12.6,164.883H0v17.635H73.059V164.883ZM66.761,173.7a3.779,3.779,0,1,1-3.779-3.779A3.779,3.779,0,0,1,66.761,173.7Zm0,0" transform="translate(300.298 1973.679)" fill="#ffda44"/>
    <path id="Caminho_975" data-name="Caminho 975" d="M43.391,121.492h6.3v6.3h-6.3Zm0,0" transform="translate(263.205 2010.772)" fill="#e0e0e2"/>
    <path id="Caminho_976" data-name="Caminho 976" d="M43.391,286.371h6.3v6.3h-6.3Zm0,0" transform="translate(263.205 1869.826)" fill="#e0e0e2"/>
    <path id="Caminho_977" data-name="Caminho 977" d="M416.543,286.371h6.3v6.3h-6.3Zm0,0" transform="translate(-55.783 1869.826)" fill="#e0e0e2"/>
    <path id="Caminho_978" data-name="Caminho 978" d="M416.543,121.492h6.3v6.3h-6.3Zm0,0" transform="translate(-55.783 2010.772)" fill="#e0e0e2"/>
    <path id="Caminho_979" data-name="Caminho 979" d="M415.421,38.49a3.779,3.779,0,1,1-3.779-3.779A3.779,3.779,0,0,1,415.421,38.49Zm0,0" transform="translate(-48.363 2084.956)" fill="#e0e0e2"/>
    <path id="Caminho_980" data-name="Caminho 980" d="M12.6,329.762H0V347.4H73.059V329.762Zm54.164,8.817a3.779,3.779,0,1,1-3.779-3.778A3.779,3.779,0,0,1,66.761,338.579Zm0,0" transform="translate(300.298 1832.733)" fill="#ffda44"/>
    <path id="Caminho_981" data-name="Caminho 981" d="M415.421,368.255a3.779,3.779,0,1,1-3.779-3.779A3.779,3.779,0,0,1,415.421,368.255Zm0,0" transform="translate(-48.363 1803.057)" fill="#e0e0e2"/>
    <path id="Caminho_982" data-name="Caminho 982" d="M415.421,203.373a3.779,3.779,0,1,1-3.779-3.779A3.779,3.779,0,0,1,415.421,203.373Zm0,0" transform="translate(-48.363 1944.007)" fill="#e0e0e2"/>
    <path id="Caminho_983" data-name="Caminho 983" d="M34.711,34.711H37.23v7.558H34.711Zm0,0" transform="translate(270.625 2084.956)" fill="#acabb1"/>
    <path id="Caminho_984" data-name="Caminho 984" d="M69.422,34.711h2.52v7.558h-2.52Zm0,0" transform="translate(240.953 2084.956)" fill="#acabb1"/>
    <path id="Caminho_985" data-name="Caminho 985" d="M104.137,34.711h2.519v7.558h-2.519Zm0,0" transform="translate(211.276 2084.956)" fill="#acabb1"/>
    <path id="Caminho_986" data-name="Caminho 986" d="M404.226,36.112a5.038,5.038,0,1,1,5.038-5.038A5.038,5.038,0,0,1,404.226,36.112Zm0-7.558a2.519,2.519,0,1,0,2.519,2.519A2.519,2.519,0,0,0,404.226,28.554Zm0,0" transform="translate(-40.947 2092.373)" fill="#c0ab91"/>
    <path id="Caminho_987" data-name="Caminho 987" d="M190.914,34.711h2.52V37.23h-2.52Zm0,0" transform="translate(137.095 2084.956)" fill="#acabb1"/>
    <path id="Caminho_988" data-name="Caminho 988" d="M225.629,34.711h2.519V37.23h-2.519Zm0,0" transform="translate(107.419 2084.956)" fill="#acabb1"/>
    <path id="Caminho_989" data-name="Caminho 989" d="M260.34,34.711h2.519V37.23H260.34Zm0,0" transform="translate(77.747 2084.956)" fill="#acabb1"/>
    <path id="Caminho_990" data-name="Caminho 990" d="M295.051,34.711h2.519V37.23h-2.519Zm0,0" transform="translate(48.074 2084.956)" fill="#acabb1"/>
    <path id="Caminho_991" data-name="Caminho 991" d="M190.914,69.422h2.52v2.52h-2.52Zm0,0" transform="translate(137.095 2055.284)" fill="#acabb1"/>
    <path id="Caminho_992" data-name="Caminho 992" d="M225.629,69.422h2.519v2.52h-2.519Zm0,0" transform="translate(107.419 2055.284)" fill="#acabb1"/>
    <path id="Caminho_993" data-name="Caminho 993" d="M260.34,69.422h2.519v2.52H260.34Zm0,0" transform="translate(77.747 2055.284)" fill="#acabb1"/>
    <path id="Caminho_994" data-name="Caminho 994" d="M295.051,69.422h2.519v2.52h-2.519Zm0,0" transform="translate(48.074 2055.284)" fill="#acabb1"/>
    <path id="Caminho_995" data-name="Caminho 995" d="M329.762,34.711h2.519V37.23h-2.519Zm0,0" transform="translate(18.402 2084.956)" fill="#acabb1"/>
    <path id="Caminho_996" data-name="Caminho 996" d="M329.762,69.422h2.519v2.52h-2.519Zm0,0" transform="translate(18.402 2055.284)" fill="#acabb1"/>
    <path id="Caminho_997" data-name="Caminho 997" d="M364.473,34.711h2.52V37.23h-2.52Zm0,0" transform="translate(-11.271 2084.956)" fill="#acabb1"/>
    <path id="Caminho_998" data-name="Caminho 998" d="M364.473,69.422h2.52v2.52h-2.52Zm0,0" transform="translate(-11.271 2055.284)" fill="#acabb1"/>
    <path id="Caminho_999" data-name="Caminho 999" d="M34.711,364.473H37.23v7.558H34.711Zm0,0" transform="translate(270.625 1803.06)" fill="#acabb1"/>
    <path id="Caminho_1000" data-name="Caminho 1000" d="M69.422,364.473h2.52v7.558h-2.52Zm0,0" transform="translate(240.953 1803.06)" fill="#acabb1"/>
    <path id="Caminho_1001" data-name="Caminho 1001" d="M104.137,364.473h2.519v7.558h-2.519Zm0,0" transform="translate(211.276 1803.06)" fill="#acabb1"/>
    <path id="Caminho_1002" data-name="Caminho 1002" d="M404.226,365.874a5.039,5.039,0,1,1,5.038-5.039A5.039,5.039,0,0,1,404.226,365.874Zm0-7.558a2.52,2.52,0,1,0,2.519,2.519A2.519,2.519,0,0,0,404.226,358.316Zm0,0" transform="translate(-40.947 1810.477)" fill="#c0ab91"/>
    <path id="Caminho_1003" data-name="Caminho 1003" d="M190.914,364.473h2.52v2.52h-2.52Zm0,0" transform="translate(137.095 1803.06)" fill="#acabb1"/>
    <path id="Caminho_1004" data-name="Caminho 1004" d="M225.629,364.473h2.519v2.52h-2.519Zm0,0" transform="translate(107.419 1803.06)" fill="#acabb1"/>
    <path id="Caminho_1005" data-name="Caminho 1005" d="M260.34,364.473h2.519v2.52H260.34Zm0,0" transform="translate(77.747 1803.06)" fill="#acabb1"/>
    <path id="Caminho_1006" data-name="Caminho 1006" d="M295.051,364.473h2.519v2.52h-2.519Zm0,0" transform="translate(48.074 1803.06)" fill="#acabb1"/>
    <path id="Caminho_1007" data-name="Caminho 1007" d="M190.914,399.188h2.52v2.519h-2.52Zm0,0" transform="translate(137.095 1773.385)" fill="#acabb1"/>
    <path id="Caminho_1008" data-name="Caminho 1008" d="M225.629,399.188h2.519v2.519h-2.519Zm0,0" transform="translate(107.419 1773.385)" fill="#acabb1"/>
    <path id="Caminho_1009" data-name="Caminho 1009" d="M260.34,399.188h2.519v2.519H260.34Zm0,0" transform="translate(77.747 1773.385)" fill="#acabb1"/>
    <path id="Caminho_1010" data-name="Caminho 1010" d="M295.051,399.188h2.519v2.519h-2.519Zm0,0" transform="translate(48.074 1773.385)" fill="#acabb1"/>
    <path id="Caminho_1011" data-name="Caminho 1011" d="M329.762,364.473h2.519v2.52h-2.519Zm0,0" transform="translate(18.402 1803.06)" fill="#acabb1"/>
    <path id="Caminho_1012" data-name="Caminho 1012" d="M329.762,399.188h2.519v2.519h-2.519Zm0,0" transform="translate(18.402 1773.385)" fill="#acabb1"/>
    <path id="Caminho_1013" data-name="Caminho 1013" d="M364.473,364.473h2.52v2.52h-2.52Zm0,0" transform="translate(-11.271 1803.06)" fill="#acabb1"/>
    <path id="Caminho_1014" data-name="Caminho 1014" d="M364.473,399.188h2.52v2.519h-2.52Zm0,0" transform="translate(-11.271 1773.385)" fill="#acabb1"/>
    <path id="Caminho_1015" data-name="Caminho 1015" d="M34.711,199.594H37.23v7.558H34.711Zm0,0" transform="translate(270.625 1944.007)" fill="#acabb1"/>
    <path id="Caminho_1016" data-name="Caminho 1016" d="M69.422,199.594h2.52v7.558h-2.52Zm0,0" transform="translate(240.953 1944.007)" fill="#acabb1"/>
    <path id="Caminho_1017" data-name="Caminho 1017" d="M104.137,199.594h2.519v7.558h-2.519Zm0,0" transform="translate(211.276 1944.007)" fill="#acabb1"/>
    <path id="Caminho_1018" data-name="Caminho 1018" d="M404.226,200.991a5.039,5.039,0,1,1,5.038-5.038A5.038,5.038,0,0,1,404.226,200.991Zm0-7.558a2.519,2.519,0,1,0,2.519,2.52A2.519,2.519,0,0,0,404.226,193.433Zm0,0" transform="translate(-40.947 1951.427)" fill="#c0ab91"/>
    <path id="Caminho_1019" data-name="Caminho 1019" d="M190.914,199.594h2.52v2.519h-2.52Zm0,0" transform="translate(137.095 1944.007)" fill="#acabb1"/>
    <path id="Caminho_1020" data-name="Caminho 1020" d="M225.629,199.594h2.519v2.519h-2.519Zm0,0" transform="translate(107.419 1944.007)" fill="#acabb1"/>
    <path id="Caminho_1021" data-name="Caminho 1021" d="M260.34,199.594h2.519v2.519H260.34Zm0,0" transform="translate(77.747 1944.007)" fill="#acabb1"/>
    <path id="Caminho_1022" data-name="Caminho 1022" d="M295.051,199.594h2.519v2.519h-2.519Zm0,0" transform="translate(48.074 1944.007)" fill="#acabb1"/>
    <path id="Caminho_1023" data-name="Caminho 1023" d="M190.914,234.3h2.52v2.519h-2.52Zm0,0" transform="translate(137.095 1914.334)" fill="#acabb1"/>
    <path id="Caminho_1024" data-name="Caminho 1024" d="M225.629,234.3h2.519v2.519h-2.519Zm0,0" transform="translate(107.419 1914.334)" fill="#acabb1"/>
    <path id="Caminho_1025" data-name="Caminho 1025" d="M260.34,234.3h2.519v2.519H260.34Zm0,0" transform="translate(77.747 1914.334)" fill="#acabb1"/>
    <path id="Caminho_1026" data-name="Caminho 1026" d="M295.051,234.3h2.519v2.519h-2.519Zm0,0" transform="translate(48.074 1914.334)" fill="#acabb1"/>
    <path id="Caminho_1027" data-name="Caminho 1027" d="M329.762,199.594h2.519v2.519h-2.519Zm0,0" transform="translate(18.402 1944.007)" fill="#acabb1"/>
    <path id="Caminho_1028" data-name="Caminho 1028" d="M329.762,234.3h2.519v2.519h-2.519Zm0,0" transform="translate(18.402 1914.334)" fill="#acabb1"/>
    <path id="Caminho_1029" data-name="Caminho 1029" d="M364.473,199.594h2.52v2.519h-2.52Zm0,0" transform="translate(-11.271 1944.007)" fill="#acabb1"/>
    <path id="Caminho_1030" data-name="Caminho 1030" d="M364.473,234.3h2.52v2.519h-2.52Zm0,0" transform="translate(-11.271 1914.334)" fill="#acabb1"/>
    <path id="Caminho_1031" data-name="Caminho 1031" d="M34.711,451.254H37.23v8.817H34.711Zm0,0" transform="translate(270.625 1728.876)" fill="#c0ab91"/>
    <path id="Caminho_1032" data-name="Caminho 1032" d="M451.254,451.254h2.519v8.817h-2.519Zm0,0" transform="translate(-85.455 1728.876)" fill="#c0ab91"/>
    <path id="Caminho_1033" data-name="Caminho 1033" d="M277.7,477.289h2.519v2.519H277.7Zm0,0" transform="translate(62.911 1706.62)" fill="#c0ab91"/>
    <path id="Caminho_1034" data-name="Caminho 1034" d="M312.406,477.289h2.519v2.519h-2.519Zm0,0" transform="translate(33.238 1706.62)" fill="#c0ab91"/>
    <path id="Caminho_1035" data-name="Caminho 1035" d="M347.117,477.289h2.52v2.519h-2.52Zm0,0" transform="translate(3.566 1706.62)" fill="#c0ab91"/>
    <path id="Caminho_1036" data-name="Caminho 1036" d="M381.832,477.289h2.519v2.519h-2.519Zm0,0" transform="translate(-26.11 1706.62)" fill="#c0ab91"/>
    <path id="Caminho_1037" data-name="Caminho 1037" d="M416.543,477.289h2.519v2.519h-2.519Zm0,0" transform="translate(-55.783 1706.62)" fill="#c0ab91"/>
    <path id="Caminho_1038" data-name="Caminho 1038" d="M242.984,477.289H245.5v2.519h-2.519Zm0,0" transform="translate(92.584 1706.62)" fill="#c0ab91"/>
    <path id="Caminho_1039" data-name="Caminho 1039" d="M208.27,477.289h2.52v2.519h-2.52Zm0,0" transform="translate(122.259 1706.62)" fill="#c0ab91"/>
    <path id="Caminho_1040" data-name="Caminho 1040" d="M173.559,477.289h2.519v2.519h-2.519Zm0,0" transform="translate(151.931 1706.62)" fill="#c0ab91"/>
    <path id="Caminho_1041" data-name="Caminho 1041" d="M138.848,477.289h2.519v2.519h-2.519Zm0,0" transform="translate(181.604 1706.62)" fill="#c0ab91"/>
    <path id="Caminho_1042" data-name="Caminho 1042" d="M104.137,477.289h2.519v2.519h-2.519Zm0,0" transform="translate(211.276 1706.62)" fill="#c0ab91"/>
    <path id="Caminho_1043" data-name="Caminho 1043" d="M69.422,477.289h2.52v2.519h-2.52Zm0,0" transform="translate(240.953 1706.62)" fill="#c0ab91"/>
  </g>
</svg>
